<svg width="94" height="35" viewBox="0 0 94 35" fill="none" xmlns="http://www.w3.org/2000/svg">
<mask id="path-1-inside-1" fill="white">
<path fill-rule="evenodd" clip-rule="evenodd" d="M17.5 0C7.83502 0 0 7.83502 0 17.5C0 27.165 7.83502 35 17.5 35H76.5C86.165 35 94 27.165 94 17.5C94 7.83502 86.165 0 76.5 0H17.5ZM42.4986 23.0001H44.6406L39.8395 16.6251L44.669 11.3638H42.4929L37.9645 16.2785H37.3622V11.3638H35.6065V23.0001H37.3622V17.7842H38.5668L42.4986 23.0001ZM45.5952 23.0001H46.1406C48.044 23.0001 48.7429 21.591 48.8793 18.7047L49.0156 15.7388H51.8679V23.0001H53.5327V14.2729H47.4418L47.2884 18.1365C47.1804 20.8297 46.8736 21.5285 45.902 21.5285H45.5895L45.5952 23.0001ZM57.4631 20.6195V14.2729H55.7983V23.0001H57.6449L61.4744 16.6479V23.0001H63.1392V14.2729H61.3097L57.4631 20.6195ZM65.4233 23.0001H67.0767V15.7388H70.8778V23.0001H72.5426V14.2729H65.4233V23.0001ZM25.5825 16.7441C26.1392 17.1021 26.1392 17.8982 25.5825 18.2562L18.4412 22.8489C17.8233 23.2462 17 22.8143 17 22.0928V12.9074C17 12.1859 17.8233 11.754 18.4412 12.1514L25.5825 16.7441Z"/>
</mask>
<path fill-rule="evenodd" clip-rule="evenodd" d="M17.5 0C7.83502 0 0 7.83502 0 17.5C0 27.165 7.83502 35 17.5 35H76.5C86.165 35 94 27.165 94 17.5C94 7.83502 86.165 0 76.5 0H17.5ZM42.4986 23.0001H44.6406L39.8395 16.6251L44.669 11.3638H42.4929L37.9645 16.2785H37.3622V11.3638H35.6065V23.0001H37.3622V17.7842H38.5668L42.4986 23.0001ZM45.5952 23.0001H46.1406C48.044 23.0001 48.7429 21.591 48.8793 18.7047L49.0156 15.7388H51.8679V23.0001H53.5327V14.2729H47.4418L47.2884 18.1365C47.1804 20.8297 46.8736 21.5285 45.902 21.5285H45.5895L45.5952 23.0001ZM57.4631 20.6195V14.2729H55.7983V23.0001H57.6449L61.4744 16.6479V23.0001H63.1392V14.2729H61.3097L57.4631 20.6195ZM65.4233 23.0001H67.0767V15.7388H70.8778V23.0001H72.5426V14.2729H65.4233V23.0001ZM25.5825 16.7441C26.1392 17.1021 26.1392 17.8982 25.5825 18.2562L18.4412 22.8489C17.8233 23.2462 17 22.8143 17 22.0928V12.9074C17 12.1859 17.8233 11.754 18.4412 12.1514L25.5825 16.7441Z" fill="white"/>
<path d="M44.6406 23.0001V25.0001H48.6506L46.2382 21.7969L44.6406 23.0001ZM42.4986 23.0001L40.9015 24.204L41.5016 25.0001H42.4986V23.0001ZM39.8395 16.6251L38.3661 15.2727L37.2406 16.4988L38.2419 17.8283L39.8395 16.6251ZM44.669 11.3638L46.1424 12.7162L49.2197 9.36377H44.669V11.3638ZM42.4929 11.3638V9.36377H41.6161L41.0221 10.0086L42.4929 11.3638ZM37.9645 16.2785V18.2785H38.8412L39.4353 17.6338L37.9645 16.2785ZM37.3622 16.2785H35.3622V18.2785H37.3622V16.2785ZM37.3622 11.3638H39.3622V9.36377H37.3622V11.3638ZM35.6065 11.3638V9.36377H33.6065V11.3638H35.6065ZM35.6065 23.0001H33.6065V25.0001H35.6065V23.0001ZM37.3622 23.0001V25.0001H39.3622V23.0001H37.3622ZM37.3622 17.7842V15.7842H35.3622V17.7842H37.3622ZM38.5668 17.7842L40.1638 16.5803L39.5637 15.7842H38.5668V17.7842ZM45.5952 23.0001L43.5952 23.0079L43.6029 25.0001H45.5952V23.0001ZM48.8793 18.7047L50.877 18.7991L50.8772 18.7965L48.8793 18.7047ZM49.0156 15.7388V13.7388H47.1055L47.0177 15.6469L49.0156 15.7388ZM51.8679 15.7388H53.8679V13.7388H51.8679V15.7388ZM51.8679 23.0001H49.8679V25.0001H51.8679V23.0001ZM53.5327 23.0001V25.0001H55.5327V23.0001H53.5327ZM53.5327 14.2729H55.5327V12.2729H53.5327V14.2729ZM47.4418 14.2729V12.2729H45.5196L45.4433 14.1935L47.4418 14.2729ZM47.2884 18.1365L49.2867 18.2166L49.2868 18.2158L47.2884 18.1365ZM45.5895 21.5285V19.5285H43.5818L43.5895 21.5363L45.5895 21.5285ZM57.4631 14.2729H59.4631V12.2729H57.4631V14.2729ZM57.4631 20.6195H55.4631V27.7779L59.1734 21.6561L57.4631 20.6195ZM55.7983 14.2729V12.2729H53.7983V14.2729H55.7983ZM55.7983 23.0001H53.7983V25.0001H55.7983V23.0001ZM57.6449 23.0001V25.0001H58.7745L59.3577 24.0327L57.6449 23.0001ZM61.4744 16.6479H63.4744V9.45662L59.7616 15.6153L61.4744 16.6479ZM61.4744 23.0001H59.4744V25.0001H61.4744V23.0001ZM63.1392 23.0001V25.0001H65.1392V23.0001H63.1392ZM63.1392 14.2729H65.1392V12.2729H63.1392V14.2729ZM61.3097 14.2729V12.2729H60.1832L59.5993 13.2362L61.3097 14.2729ZM67.0767 23.0001V25.0001H69.0767V23.0001H67.0767ZM65.4233 23.0001H63.4233V25.0001H65.4233V23.0001ZM67.0767 15.7388V13.7388H65.0767V15.7388H67.0767ZM70.8778 15.7388H72.8778V13.7388H70.8778V15.7388ZM70.8778 23.0001H68.8778V25.0001H70.8778V23.0001ZM72.5426 23.0001V25.0001H74.5426V23.0001H72.5426ZM72.5426 14.2729H74.5426V12.2729H72.5426V14.2729ZM65.4233 14.2729V12.2729H63.4233V14.2729H65.4233ZM25.5825 18.2562L24.5007 16.574L25.5825 18.2562ZM25.5825 16.7441L24.5007 18.4262L25.5825 16.7441ZM18.4412 22.8489L17.3594 21.1667L17.3593 21.1667L18.4412 22.8489ZM18.4412 12.1514L17.3593 13.8336L17.3594 13.8336L18.4412 12.1514ZM2 17.5C2 8.93959 8.93959 2 17.5 2V-2C6.73045 -2 -2 6.73045 -2 17.5H2ZM17.5 33C8.93959 33 2 26.0604 2 17.5H-2C-2 28.2696 6.73045 37 17.5 37V33ZM76.5 33H17.5V37H76.5V33ZM92 17.5C92 26.0604 85.0604 33 76.5 33V37C87.2696 37 96 28.2696 96 17.5H92ZM76.5 2C85.0604 2 92 8.93959 92 17.5H96C96 6.73045 87.2696 -2 76.5 -2V2ZM17.5 2H76.5V-2H17.5V2ZM44.6406 21.0001H42.4986V25.0001H44.6406V21.0001ZM38.2419 17.8283L43.043 24.2033L46.2382 21.7969L41.4371 15.4219L38.2419 17.8283ZM43.1956 10.0113L38.3661 15.2727L41.3129 17.9776L46.1424 12.7162L43.1956 10.0113ZM42.4929 13.3638H44.669V9.36377H42.4929V13.3638ZM39.4353 17.6338L43.9637 12.719L41.0221 10.0086L36.4936 14.9233L39.4353 17.6338ZM37.3622 18.2785H37.9645V14.2785H37.3622V18.2785ZM35.3622 11.3638V16.2785H39.3622V11.3638H35.3622ZM35.6065 13.3638H37.3622V9.36377H35.6065V13.3638ZM37.6065 23.0001V11.3638H33.6065V23.0001H37.6065ZM37.3622 21.0001H35.6065V25.0001H37.3622V21.0001ZM35.3622 17.7842V23.0001H39.3622V17.7842H35.3622ZM38.5668 15.7842H37.3622V19.7842H38.5668V15.7842ZM44.0957 21.7962L40.1638 16.5803L36.9697 18.9881L40.9015 24.204L44.0957 21.7962ZM46.1406 21.0001H45.5952V25.0001H46.1406V21.0001ZM46.8815 18.6103C46.8161 19.9952 46.6176 20.6403 46.4596 20.9025C46.4074 20.9891 46.3912 20.9807 46.4179 20.9666C46.4333 20.9585 46.37 21.0001 46.1406 21.0001V25.0001C46.8629 25.0001 47.6008 24.8657 48.2868 24.5031C48.9841 24.1346 49.5081 23.5936 49.8856 22.967C50.5869 21.8032 50.8061 20.3005 50.877 18.7991L46.8815 18.6103ZM47.0177 15.6469L46.8814 18.6128L50.8772 18.7965L51.0135 15.8306L47.0177 15.6469ZM51.8679 13.7388H49.0156V17.7388H51.8679V13.7388ZM53.8679 23.0001V15.7388H49.8679V23.0001H53.8679ZM53.5327 21.0001H51.8679V25.0001H53.5327V21.0001ZM51.5327 14.2729V23.0001H55.5327V14.2729H51.5327ZM47.4418 16.2729H53.5327V12.2729H47.4418V16.2729ZM49.2868 18.2158L49.4402 14.3522L45.4433 14.1935L45.2899 18.0571L49.2868 18.2158ZM45.902 23.5285C46.3762 23.5285 46.9981 23.4439 47.5962 23.0588C48.202 22.6686 48.5559 22.1174 48.767 21.6073C49.1351 20.718 49.2346 19.5181 49.2867 18.2166L45.29 18.0564C45.264 18.7039 45.2277 19.1829 45.1803 19.5388C45.1311 19.9088 45.0811 20.0534 45.0711 20.0776C45.0705 20.0789 45.1588 19.8707 45.4305 19.6958C45.6943 19.5258 45.9136 19.5285 45.902 19.5285V23.5285ZM45.5895 23.5285H45.902V19.5285H45.5895V23.5285ZM47.5952 22.9924L47.5895 21.5208L43.5895 21.5363L43.5952 23.0079L47.5952 22.9924ZM55.4631 14.2729V20.6195H59.4631V14.2729H55.4631ZM55.7983 16.2729H57.4631V12.2729H55.7983V16.2729ZM57.7983 23.0001V14.2729H53.7983V23.0001H57.7983ZM57.6449 21.0001H55.7983V25.0001H57.6449V21.0001ZM59.7616 15.6153L55.9321 21.9675L59.3577 24.0327L63.1873 17.6805L59.7616 15.6153ZM63.4744 23.0001V16.6479H59.4744V23.0001H63.4744ZM63.1392 21.0001H61.4744V25.0001H63.1392V21.0001ZM61.1392 14.2729V23.0001H65.1392V14.2729H61.1392ZM61.3097 16.2729H63.1392V12.2729H61.3097V16.2729ZM59.1734 21.6561L63.02 15.3095L59.5993 13.2362L55.7527 19.5828L59.1734 21.6561ZM67.0767 21.0001H65.4233V25.0001H67.0767V21.0001ZM65.0767 15.7388V23.0001H69.0767V15.7388H65.0767ZM70.8778 13.7388H67.0767V17.7388H70.8778V13.7388ZM72.8778 23.0001V15.7388H68.8778V23.0001H72.8778ZM72.5426 21.0001H70.8778V25.0001H72.5426V21.0001ZM70.5426 14.2729V23.0001H74.5426V14.2729H70.5426ZM65.4233 16.2729H72.5426V12.2729H65.4233V16.2729ZM67.4233 23.0001V14.2729H63.4233V23.0001H67.4233ZM26.6643 19.9383C28.4452 18.793 28.4452 16.2073 26.6643 15.0619L24.5007 18.4262C23.8331 17.9969 23.8331 17.0033 24.5007 16.574L26.6643 19.9383ZM19.523 24.531L26.6643 19.9383L24.5007 16.574L17.3594 21.1667L19.523 24.531ZM15 22.0928C15 24.4882 17.6517 25.7345 19.523 24.531L17.3593 21.1667C17.9949 20.758 19 21.1404 19 22.0928H15ZM15 12.9074V22.0928H19V12.9074H15ZM19.523 10.4692C17.6517 9.26577 15 10.512 15 12.9074H19C19 13.8598 17.9949 14.2423 17.3593 13.8336L19.523 10.4692ZM26.6643 15.0619L19.523 10.4692L17.3594 13.8336L24.5007 18.4262L26.6643 15.0619Z" fill="white" mask="url(#path-1-inside-1)"/>
</svg>
