<svg width="74" height="31" viewBox="0 0 74 31" fill="none" xmlns="http://www.w3.org/2000/svg">
<mask id="path-1-inside-1" fill="white">
<path fill-rule="evenodd" clip-rule="evenodd" d="M15.5 0C6.93959 0 0 6.93959 0 15.5C0 24.0604 6.93959 31 15.5 31H58.5C67.0604 31 74 24.0604 74 15.5C74 6.93959 67.0604 0 58.5 0H15.5ZM20.6753 14.8813C21.1082 15.1742 21.1082 15.8256 20.6753 16.1185L15.1209 19.8761C14.6403 20.2013 14 19.8479 14 19.2576V11.7422C14 11.1519 14.6403 10.7985 15.1209 11.1237L20.6753 14.8813ZM32.3739 20.0001H33.9805L30.3796 15.2189L34.0018 11.2729H32.3697L28.9734 14.959H28.5217V11.2729H27.2049V20.0001H28.5217V16.0882H29.4251L32.3739 20.0001ZM34.6964 20.0001H35.1055C36.533 20.0001 37.0572 18.9433 37.1594 16.7786L37.2617 14.5541H39.4009V20.0001H40.6495V13.4547H36.0813L35.9663 16.3524C35.8853 18.3723 35.6552 18.8965 34.9265 18.8965H34.6921L34.6964 20.0001ZM43.5973 18.2146V13.4547H42.3487V20.0001H43.7337L46.6058 15.2359V20.0001H47.8544V13.4547H46.4822L43.5973 18.2146ZM49.5675 20.0001H50.8075V14.5541H53.6584V20.0001H54.907V13.4547H49.5675V20.0001Z"/>
</mask>
<path fill-rule="evenodd" clip-rule="evenodd" d="M15.5 0C6.93959 0 0 6.93959 0 15.5C0 24.0604 6.93959 31 15.5 31H58.5C67.0604 31 74 24.0604 74 15.5C74 6.93959 67.0604 0 58.5 0H15.5ZM20.6753 14.8813C21.1082 15.1742 21.1082 15.8256 20.6753 16.1185L15.1209 19.8761C14.6403 20.2013 14 19.8479 14 19.2576V11.7422C14 11.1519 14.6403 10.7985 15.1209 11.1237L20.6753 14.8813ZM32.3739 20.0001H33.9805L30.3796 15.2189L34.0018 11.2729H32.3697L28.9734 14.959H28.5217V11.2729H27.2049V20.0001H28.5217V16.0882H29.4251L32.3739 20.0001ZM34.6964 20.0001H35.1055C36.533 20.0001 37.0572 18.9433 37.1594 16.7786L37.2617 14.5541H39.4009V20.0001H40.6495V13.4547H36.0813L35.9663 16.3524C35.8853 18.3723 35.6552 18.8965 34.9265 18.8965H34.6921L34.6964 20.0001ZM43.5973 18.2146V13.4547H42.3487V20.0001H43.7337L46.6058 15.2359V20.0001H47.8544V13.4547H46.4822L43.5973 18.2146ZM49.5675 20.0001H50.8075V14.5541H53.6584V20.0001H54.907V13.4547H49.5675V20.0001Z" fill="white"/>
<path d="M20.6753 16.1185L19.5546 14.462L19.5546 14.462L20.6753 16.1185ZM20.6753 14.8813L19.5546 16.5378H19.5546L20.6753 14.8813ZM15.1209 19.8761L16.2416 21.5327H16.2416L15.1209 19.8761ZM15.1209 11.1237L14.0002 12.7802L14.0002 12.7802L15.1209 11.1237ZM33.9805 20.0001V22.0001H37.9905L35.5781 18.797L33.9805 20.0001ZM32.3739 20.0001L30.7769 21.204L31.377 22.0001H32.3739V20.0001ZM30.3796 15.2189L28.9062 13.8664L27.7807 15.0926L28.782 16.4221L30.3796 15.2189ZM34.0018 11.2729L35.4752 12.6253L38.5525 9.27287H34.0018V11.2729ZM32.3697 11.2729V9.27287H31.4929L30.8988 9.91765L32.3697 11.2729ZM28.9734 14.959V16.959H29.8501L30.4442 16.3142L28.9734 14.959ZM28.5217 14.959H26.5217V16.959H28.5217V14.959ZM28.5217 11.2729H30.5217V9.27287H28.5217V11.2729ZM27.2049 11.2729V9.27287H25.2049V11.2729H27.2049ZM27.2049 20.0001H25.2049V22.0001H27.2049V20.0001ZM28.5217 20.0001V22.0001H30.5217V20.0001H28.5217ZM28.5217 16.0882V14.0882H26.5217V16.0882H28.5217ZM29.4251 16.0882L31.0221 14.8843L30.422 14.0882H29.4251V16.0882ZM34.6964 20.0001L32.6964 20.0079L32.7041 22.0001H34.6964V20.0001ZM37.1594 16.7786L39.1572 16.8729L39.1573 16.8704L37.1594 16.7786ZM37.2617 14.5541V12.5541H35.3516L35.2638 14.4623L37.2617 14.5541ZM39.4009 14.5541H41.4009V12.5541H39.4009V14.5541ZM39.4009 20.0001H37.4009V22.0001H39.4009V20.0001ZM40.6495 20.0001V22.0001H42.6495V20.0001H40.6495ZM40.6495 13.4547H42.6495V11.4547H40.6495V13.4547ZM36.0813 13.4547V11.4547H34.1592L34.0829 13.3753L36.0813 13.4547ZM35.9663 16.3524L37.9647 16.4325L37.9647 16.4318L35.9663 16.3524ZM34.6921 18.8965V16.8965H32.6844L32.6921 18.9042L34.6921 18.8965ZM43.5973 13.4547H45.5973V11.4547H43.5973V13.4547ZM43.5973 18.2146H41.5973V25.3731L45.3077 19.2513L43.5973 18.2146ZM42.3487 13.4547V11.4547H40.3487V13.4547H42.3487ZM42.3487 20.0001H40.3487V22.0001H42.3487V20.0001ZM43.7337 20.0001V22.0001H44.8633L45.4465 21.0327L43.7337 20.0001ZM46.6058 15.2359H48.6058V8.04469L44.893 14.2033L46.6058 15.2359ZM46.6058 20.0001H44.6058V22.0001H46.6058V20.0001ZM47.8544 20.0001V22.0001H49.8544V20.0001H47.8544ZM47.8544 13.4547H49.8544V11.4547H47.8544V13.4547ZM46.4822 13.4547V11.4547H45.3558L44.7719 12.4181L46.4822 13.4547ZM50.8075 20.0001V22.0001H52.8075V20.0001H50.8075ZM49.5675 20.0001H47.5675V22.0001H49.5675V20.0001ZM50.8075 14.5541V12.5541H48.8075V14.5541H50.8075ZM53.6584 14.5541H55.6584V12.5541H53.6584V14.5541ZM53.6584 20.0001H51.6584V22.0001H53.6584V20.0001ZM54.907 20.0001V22.0001H56.907V20.0001H54.907ZM54.907 13.4547H56.907V11.4547H54.907V13.4547ZM49.5675 13.4547V11.4547H47.5675V13.4547H49.5675ZM2 15.5C2 8.04416 8.04416 2 15.5 2V-2C5.83502 -2 -2 5.83502 -2 15.5H2ZM15.5 29C8.04416 29 2 22.9558 2 15.5H-2C-2 25.165 5.83502 33 15.5 33V29ZM58.5 29H15.5V33H58.5V29ZM72 15.5C72 22.9558 65.9558 29 58.5 29V33C68.165 33 76 25.165 76 15.5H72ZM58.5 2C65.9558 2 72 8.04416 72 15.5H76C76 5.83502 68.165 -2 58.5 -2V2ZM15.5 2H58.5V-2H15.5V2ZM21.7959 17.775C23.4014 16.6889 23.4014 14.3109 21.7959 13.2248L19.5546 16.5378C18.8151 16.0376 18.8151 14.9622 19.5546 14.462L21.7959 17.775ZM16.2416 21.5327L21.7959 17.775L19.5546 14.462L14.0002 18.2196L16.2416 21.5327ZM12 19.2576C12 21.3585 14.3565 22.8079 16.2416 21.5327L14.0002 18.2196C14.9241 17.5946 16 18.3373 16 19.2576H12ZM12 11.7422V19.2576H16V11.7422H12ZM16.2416 9.46714C14.3566 8.19186 12 9.64129 12 11.7422H16C16 12.6625 14.9241 13.4052 14.0002 12.7802L16.2416 9.46714ZM21.7959 13.2248L16.2416 9.46713L14.0002 12.7802L19.5546 16.5378L21.7959 13.2248ZM33.9805 18.0001H32.3739V22.0001H33.9805V18.0001ZM28.782 16.4221L32.3829 21.2033L35.5781 18.797L31.9772 14.0157L28.782 16.4221ZM32.5284 9.92041L28.9062 13.8664L31.853 16.5714L35.4752 12.6253L32.5284 9.92041ZM32.3697 13.2729H34.0018V9.27287H32.3697V13.2729ZM30.4442 16.3142L33.8405 12.6281L30.8988 9.91765L27.5025 13.6037L30.4442 16.3142ZM28.5217 16.959H28.9734V12.959H28.5217V16.959ZM26.5217 11.2729V14.959H30.5217V11.2729H26.5217ZM27.2049 13.2729H28.5217V9.27287H27.2049V13.2729ZM29.2049 20.0001V11.2729H25.2049V20.0001H29.2049ZM28.5217 18.0001H27.2049V22.0001H28.5217V18.0001ZM26.5217 16.0882V20.0001H30.5217V16.0882H26.5217ZM29.4251 14.0882H28.5217V18.0882H29.4251V14.0882ZM33.971 18.7963L31.0221 14.8843L27.828 17.2921L30.7769 21.204L33.971 18.7963ZM35.1055 18.0001H34.6964V22.0001H35.1055V18.0001ZM35.1617 16.6842C35.1392 17.1607 35.0956 17.517 35.0399 17.7791C34.9832 18.0453 34.927 18.1514 34.9164 18.1689C34.9138 18.1732 34.9256 18.1528 34.9573 18.1218C34.9903 18.0895 35.0325 18.0579 35.0798 18.0329C35.179 17.9805 35.2159 18.0001 35.1055 18.0001V22.0001C35.7088 22.0001 36.3465 21.8877 36.9487 21.5695C37.5622 21.2453 38.0186 20.7708 38.3425 20.2334C38.9364 19.2478 39.1033 18.0136 39.1572 16.8729L35.1617 16.6842ZM35.2638 14.4623L35.1616 16.6867L39.1573 16.8704L39.2596 14.646L35.2638 14.4623ZM39.4009 12.5541H37.2617V16.5541H39.4009V12.5541ZM41.4009 20.0001V14.5541H37.4009V20.0001H41.4009ZM40.6495 18.0001H39.4009V22.0001H40.6495V18.0001ZM38.6495 13.4547V20.0001H42.6495V13.4547H38.6495ZM36.0813 15.4547H40.6495V11.4547H36.0813V15.4547ZM37.9647 16.4318L38.0797 13.534L34.0829 13.3753L33.9678 16.2731L37.9647 16.4318ZM34.9265 20.8965C35.3399 20.8965 35.9116 20.8227 36.4679 20.4645C37.0319 20.1012 37.3526 19.5929 37.5372 19.1467C37.8524 18.3853 37.926 17.3974 37.9647 16.4325L33.9679 16.2723C33.9487 16.7515 33.9222 17.0933 33.8896 17.3382C33.8551 17.5971 33.8249 17.6567 33.8413 17.617C33.8672 17.5544 33.9887 17.3033 34.3021 17.1015C34.6078 16.9047 34.8774 16.8965 34.9265 16.8965V20.8965ZM34.6921 20.8965H34.9265V16.8965H34.6921V20.8965ZM36.6964 19.9924L36.6921 18.8887L32.6921 18.9042L32.6964 20.0079L36.6964 19.9924ZM41.5973 13.4547V18.2146H45.5973V13.4547H41.5973ZM42.3487 15.4547H43.5973V11.4547H42.3487V15.4547ZM44.3487 20.0001V13.4547H40.3487V20.0001H44.3487ZM43.7337 18.0001H42.3487V22.0001H43.7337V18.0001ZM44.893 14.2033L42.0208 18.9676L45.4465 21.0327L48.3186 16.2685L44.893 14.2033ZM48.6058 20.0001V15.2359H44.6058V20.0001H48.6058ZM47.8544 18.0001H46.6058V22.0001H47.8544V18.0001ZM45.8544 13.4547V20.0001H49.8544V13.4547H45.8544ZM46.4822 15.4547H47.8544V11.4547H46.4822V15.4547ZM45.3077 19.2513L48.1926 14.4913L44.7719 12.4181L41.8869 17.178L45.3077 19.2513ZM50.8075 18.0001H49.5675V22.0001H50.8075V18.0001ZM48.8075 14.5541V20.0001H52.8075V14.5541H48.8075ZM53.6584 12.5541H50.8075V16.5541H53.6584V12.5541ZM55.6584 20.0001V14.5541H51.6584V20.0001H55.6584ZM54.907 18.0001H53.6584V22.0001H54.907V18.0001ZM52.907 13.4547V20.0001H56.907V13.4547H52.907ZM49.5675 15.4547H54.907V11.4547H49.5675V15.4547ZM51.5675 20.0001V13.4547H47.5675V20.0001H51.5675Z" fill="white" mask="url(#path-1-inside-1)"/>
</svg>
